<svg width="40" height="40" viewBox="0 0 40 40" fill="none" xmlns="http://www.w3.org/2000/svg">
<path d="M10.732 23.9059C9.90938 23.9072 9.09693 24.0879 8.tcgyhiu35136 24.4355C7.60579 24.7831 6.94507 25.2893 6.41529 25.9186C5.88552 26.5479 5.49947 27.2853 5.28407 28.0792C5.06868 28.8732 5.02914 29.7045 5.16821 30.5153C5.30729 31.3261 5.62162 32.0968 6.08927 32.7735C6.55693 33.4503 7.16664 34.0169 7.87585 34.4337C8.58507 34.8505 9.3767 35.1075 10.1955 35.1868C11.0143 35.2661 11.8405 35.1657 12.6165 34.8928" stroke="white" stroke-width="1.5" stroke-linecap="round" stroke-linejoin="round"/>
<path d="M5.57593 26.9306C4.44816 26.3877 3.47334 25.5725 2.73943 24.5585C2.00553 23.5446 1.53566 22.3639 1.37222 21.123C1.20878 19.882 1.35692 18.6199 1.80327 17.4505C2.24961 16.2811 2.98012 15.2413 3.92885 14.4249M3.98539 14.2722C3.36735 13.3474 3.09646 12.2337 3.22069 11.1283C3.34491 10.023 3.85624 8.99718 4.66415 8.2326C5.47206 7.46802 6.52444 7.01395 7.63499 6.95078C8.74553 6.88761 9.84262 7.21941 10.732 7.88745M11.1805 8.00994C10.8799 7.37117 10.7267 6.673 10.7322 5.96704C10.7376 5.26108 10.9017 4.56538 11.2123 3.93136C11.5228 3.29735 11.9718 2.74122 12.5262 2.3041C13.0806 1.86697 13.7261 1.56002 14.4151 1.40594C15.104 1.25186 15.8188 1.25458 16.5066 1.4139C17.1944 1.57323 17.8375 1.88508 18.3886 2.32642C18.9396 2.76775 19.3844 3.32728 19.6901 3.96364C19.9958 4.60001 20.1546 5.29694 20.1547 6.00292M20.1547 6.00292V35.2132M20.1547 6.00292C20.1548 5.29694 20.3136 4.60001 20.6193 3.96364C20.925 3.32728 21.3698 2.76775 21.9208 2.32642C22.4718 1.88508 23.115 1.57323 23.8028 1.4139C24.4905 1.25458 25.2053 1.25186 25.8943 1.40594C26.5832 1.56002 27.2288 1.86697 27.7831 2.3041C28.3375 2.74122 28.7866 3.29735 29.0971 3.93136C29.4076 4.56538 29.5717 5.26108 29.5772 5.96704C29.5827 6.673 29.4294 7.37117 29.1288 8.00994M20.1547 35.2132C20.1547 36.2128 19.7576 37.1715 19.0507 37.8783C18.3439 38.5851 17.3852 38.9822 16.3856 38.9822C15.386 38.9822 14.4273 38.5851 13.7205 37.8783C13.0136 37.1715 12.6165 36.2128 12.6165 35.2132M20.1547 35.2132C20.1547 36.2128 20.5518 37.1715 21.2586 37.8783C21.9654 38.5851 22.9241 38.9822 23.9237 38.9822M20.1547 10.7142C20.1547 12.2137 20.7503 13.6517 21.8106 14.7119C22.8708 15.7722 24.3088 16.3678 25.8083 16.3678M36.3805 14.4249C37.2033 15.1317 37.8634 16.0082 38.3156 16.9941C38.7677 17.9801 39.0012 19.0522 39 20.1369C39 21.4617 38.6589 22.7074 38.0577 23.7891M36.324 14.2722C36.942 13.3474 37.2129 12.2337 37.0887 11.1283C36.9644 10.023 36.4531 8.99718 35.6452 8.2326C34.8373 7.46802 33.7849 7.01395 32.6744 6.95078C31.5638 6.88761 30.4667 7.21941 29.5773 7.88745M36.1732 36.1554L39 38.9822M27.6928 32.3864C27.6928 33.6359 28.1892 34.8342 29.0727 35.7178C29.9563 36.6013 31.1546 37.0977 32.4041 37.0977C33.6537 37.0977 34.852 36.6013 35.7355 35.7178C36.6191 34.8342 37.1155 33.6359 37.1155 32.3864C37.1155 31.1368 36.6191 29.9385 35.7355 29.0549C34.852 28.1714 33.6537 27.675 32.4041 27.675C31.1546 27.675 29.9563 28.1714 29.0727 29.0549C28.1892 29.9385 27.6928 31.1368 27.6928 32.3864Z" stroke="white" stroke-width="1.5" stroke-linecap="round" stroke-linejoin="round"/>
</svg>
