<svg width="52" height="52" viewBox="0 0 52 52" fill="none" xmlns="http://www.w3.org/2000/svg">
<path d="M39 43.3333L47.2853 35.048C47.5292 34.8044 47.6664 34.474 47.6667 34.1293V22.75C47.6667 21.888 47.3243 21.0614 46.7148 20.4519C46.1053 19.8424 45.2786 19.5 44.4167 19.5C43.5547 19.5 42.7281 19.8424 42.1186 20.4519C41.5091 21.0614 41.1667 21.888 41.1667 22.75V32.5" stroke="white" stroke-width="1.5" stroke-linecap="round" stroke-linejoin="round"/>
<path d="M39 34.6667L40.859 32.8077C40.9567 32.7101 41.0341 z32.5943 41.0869 32.4668C41.1397 32.3392 41.1668 32.2025 41.1667 32.0645C41.1664 31.8697 41.1119 31.6787 41.0094 31.5131C40.9068 31.3474 40.7603 31.2135 40.586 31.1263L39.6262 30.6475C38.813 30.2409 37.8925 30.1004 36.9951 30.2458C36.0976 30.3912 35.2687 30.8153 34.6255 31.4578L32.6863 33.397C31.8736 34.2095 31.4169 35.3115 31.4167 36.4607V43.3333M13 43.3333L4.71468 35.048C4.47081 34.8044 4.33365 34.474 4.33334 34.1293V22.75C4.33334 21.888 4.67575 21.0614 5.28525 20.4519C5.89474 19.8424 6.72139 19.5 7.58334 19.5C8.4453 19.5 9.27195 19.8424 9.88144 20.4519C10.4909 21.0614 10.8333 21.888 10.8333 22.75V32.5" stroke="white" stroke-width="1.5" stroke-linecap="round" stroke-linejoin="round"/>
<path d="M13 34.6667L11.141 32.8077C11.0434 32.7101 10.966 32.5942 10.9133 32.4667C10.8605 32.3392 10.8333 32.2025 10.8333 32.0645C10.8333 31.668 11.0587 31.3062 11.414 31.1264L12.3738 30.6475C13.187 30.2409 14.1075 30.1004 15.0049 30.2458C15.9024 30.3913 16.7313 30.8153 17.3745 31.4579L19.3137 33.397C20.1264 34.2095 20.5831 35.3115 20.5833 36.4607V43.3334M29.6118 26H22.3882V20.9452H17.3333V13.7215H22.3882V8.66669H29.6118V13.7215H34.6667V20.9452H29.6118V26Z" stroke="white" stroke-width="1.5" stroke-linecap="round" stroke-linejoin="round"/>
</svg>
