<svg width="138" height="58" viewBox="0 0 138 58" fill="none" xmlns="http://www.w3.org/2000/svg">
<g filter="url(#filter0_d_2016_98)">
<rect x="6" width="132" height="52" fill="white"/>
<rect x="7" y="1" width="130" height="50" stroke="black" stroke-width="2"/>
<path fill-rule="evenodd" clip-rule="evenodd" d="M37.047 23.116C37.1488 23.0312 37.2802 22.9903 37.4122 23.0023C37.5442 23.0143 37.6661 23.0782 37.751 23.18L39.834 25.68C39.9151 25.7823 39.953 25.9122 39.9397 26.042C39.9263 26.1719 39.8627 26.2913 39.7624 26.3749C39.6621 26.4585 39.5331 26.4995 39.403 26.4892C39.2729 26.479 39.1519 26.4183 39.066 26.32L36.983 23.82C36.8982 23.7182 36.8572 23.5868 36.8692 23.4548C36.8812 23.3227 36.9452 23.2009 37.047 23.116Z" fill="black"/>
<path fill-rule="evenodd" clip-rule="evenodd" d="M37.047 28.884C36.945 28.7993 36.8809 28.6775 36.8687 28.5455C36.8565 28.4134 36.8973 28.282 36.982 28.18L39.066 25.68C39.1074 25.6278 39.1589 25.5844 39.2174 25.5523C39.2758 25.5203 39.3401 25.5002 39.4064 25.4934C39.4728 25.4866 39.5398 25.4931 39.6035 25.5125C39.6673 25.532 39.7266 25.564 39.7778 25.6067C39.829 25.6494 39.8712 25.7018 39.9018 25.7611C39.9324 25.8203 39.9509 25.885 39.9561 25.9515C39.9614 26.018 39.9533 26.0848 39.9323 26.1481C39.9113 26.2114 39.8779 26.2698 39.834 26.32L37.751 28.82C37.6661 28.9218 37.5443 28.9857 37.4122 28.9977C37.2802 29.0097 37.1489 28.9688 37.047 28.884Z" fill="black"/>
<path fill-rule="evenodd" clip-rule="evenodd" d="M39.5 26C39.5 26.1326 39.4473 26.2598 39.3536 26.3536C39.2598 26.4473 39.1326 26.5 39 26.5H31.5C31.3674 26.5 31.2402 26.4473 31.1464 26.3536C31.0527 26.2598 31 26.1326 31 26C31 25.8674 31.0527 25.7402 31.1464 25.6464C31.2402 25.5527 31.3674 25.5 31.5 25.5H39C39.1326 25.5 39.2598 25.5527 39.3536 25.6464C39.4473 25.7402 39.5 25.8674 39.5 26ZM44.5 33C44.5 33.1326 44.4473 33.2598 44.3536 33.3536C44.2598 33.4473 44.1326 33.5 44 33.5H34.8C34.6674 33.5 34.5402 33.4473 34.4464 33.3536C34.3527 33.2598 34.3 33.1326 34.3 33C34.3 32.8674 34.3527 32.7402 34.4464 32.6464C34.5402 32.5527 34.6674 32.5 34.8 32.5H44C44.1326 32.5 44.2598 32.5527 44.3536 32.6464C44.4473 32.7402 44.5 32.8674 44.5 33ZM44.5 19C44.5 19.1326 44.4473 19.2598 44.3536 19.3536C44.2598 19.4473 44.1326 19.5 44 19.5H34.826C34.6934 19.5 34.5662 19.4473 34.4724 19.3536C34.3787 19.2598 34.326 19.1326 34.326 19C34.326 18.8674 34.3787 18.7402 34.4724 18.6464C34.5662 18.5527 34.6934 18.5 34.826 18.5H44C44.1326 18.5 44.2598 18.5527 44.3536 18.6464C44.4473 18.7402 44.5 18.8674 44.5 19Z" fill="black"/>
<path fill-rule="evenodd" clip-rule="evenodd" d="M34.75 33.5C34.6174 33.5 34.4902 33.4473 34.3964 33.3536C34.3027 33.2598 34.25 33.1326 34.25 33V29C34.25 28.8674 34.3027 28.7402 34.3964 28.6464C34.4902 28.5527 34.6174 28.5 34.75 28.5C34.8826 28.5 35.0098 28.5527 35.1036 28.6464C35.1973 28.7402 35.25 28.8674 35.25 29V33C35.25 33.1326 35.1973 33.2598 35.1036 33.3536C35.0098 33.4473 34.8826 33.5 34.75 33.5ZM34.75 23.5C34.6174 23.5 34.4902 23.4473 34.3964 23.3536C34.3027 23.2598 34.25 23.1326 34.25 23V19C34.25 18.8674 34.3027 18.7402 34.3964 18.6464C34.4902 18.5527 34.6174 18.5 34.75 18.5C34.8826 18.5 35.0098 18.5527 35.1036 18.6464C35.1973 18.7402 35.25 18.8674 35.25 19V23C35.25 23.1326 35.1973 23.2598 35.1036 23.3536C35.0098 23.4473 34.8826 23.5 34.75 23.5ZM44.1 33.5C43.9674 33.5 43.8402 33.4473 43.7464 33.3536C43.6527 33.2598 43.6 33.1326 43.6 33V19C43.6 18.8674 43.6527 18.7402 43.7464 18.6464C43.8402 18.5527 43.9674 18.5 44.1 18.5C44.2326 18.5 44.3598 18.5527 44.4536 18.6464C44.5473 18.7402 44.6 18.8674 44.6 19V33C44.6 33.1326 44.5473 33.2598 44.4536 33.3536C44.3598 33.4473 44.2326 33.5 44.1 33.5Z" fill="black"/>
<path d="M62.854 31.14C62.0887 31.14 61.356 31.0327 60.656 30.818C59.956 30.594 59.4007 30.3093 58.99 29.964L59.62 28.55C60.012 28.858 60.4973 29.1147 61.076 29.32C61.6547 29.5253 62.2473 29.628 62.854 29.628C63.3673 29.628 63.7827 29.572 64.1 29.46C64.4173 29.348 64.6507 29.1987 64.8 29.012C64.9493 28.816 65.024 28.5967 65.024 28.354C65.024 28.0553 64.9167 27.8173 64.702 27.64C64.4873 27.4533 64.2073 27.3087 63.862 27.206C63.526 27.094 63.148 26.9913 62.728 26.898C62.3173 26.8047 61.902 26.6973 61.482 26.576C61.0713 26.4453 60.6933 26.282 60.348 26.086C60.012 25.8807 59.7367 25.61 59.522 25.274C59.3073 24.938 59.2 24.5087 59.2 23.986C59.2 23.454 59.34 22.9687 59.62 22.53C59.9093 22.082 60.3433 21.7273 60.922 21.466C61.51 21.1953 62.252 21.06 63.148 21.06C63.736 21.06 64.3193 21.1347 64.898 21.284C65.4767 21.4333 65.9807 21.648 66.41 21.928L65.836 23.342C65.3973 23.0807 64.9447 22.8893 64.478 22.768C64.0113 22.6373 63.5633 22.572 63.134 22.572C62.63 22.572 62.2193 22.6327 61.902 22.754C61.594 22.8753 61.3653 23.034 61.216 23.23C61.076 23.426 61.006 23.65 61.006 23.902C61.006 24.2007 61.1087 24.4433 61.314 24.63C61.5287 24.8073 61.804 24.9473 62.14 25.05C62.4853 25.1527 62.868 25.2553 63.288 25.358C63.708 25.4513 64.1233 25.5587 64.534 25.68C64.954 25.8013 65.332 25.96 65.668 26.156C66.0133 26.352 66.2887 26.618 66.494 26.954C66.7087 27.29 66.816 27.7147 66.816 28.228C66.816 28.7507 66.6713 29.236 66.382 29.684C66.102 30.1227 65.668 30.4773 65.08 30.748C64.492 31.0093 63.75 31.14 62.854 31.14ZM68.4527 31V23.524H70.2027V31H68.4527ZM69.3347 22.292C69.008 22.292 68.7374 22.1893 68.5227 21.984C68.3174 21.7787 68.2147 21.5313 68.2147 21.242C68.2147 20.9433 68.3174 20.696 68.5227 20.5C68.7374 20.2947 69.008 20.192 69.3347 20.192C69.6614 20.192 69.9274 20.29 70.1327 20.486C70.3474 20.6727 70.4547 20.9107 70.4547 21.2C70.4547 21.508 70.352 21.7693 70.1467 21.984C69.9414 22.1893 69.6707 22.292 69.3347 22.292ZM75.8876 33.814C75.1969 33.814 74.5202 33.7207 73.8576 33.534C73.2042 33.3567 72.6676 33.0953 72.2476 32.75L73.0316 31.434C73.3582 31.7047 73.7689 31.9193 74.2636 32.078C74.7676 32.246 75.2762 32.33 75.7896 32.33C76.6109 32.33 77.2129 32.1387 77.5956 31.756C77.9782 31.3827 78.1696 30.818 78.1696 30.062V28.732L78.3096 27.038L78.2536 25.344V23.524H79.9196V29.866C79.9196 31.2193 79.5742 32.2133 78.8836 32.848C78.1929 33.492 77.1942 33.814 75.8876 33.814ZM75.6636 30.664C74.9542 30.664 74.3102 30.5147 73.7316 30.216C73.1622 29.908 72.7096 29.4833 72.3736 28.942C72.0469 28.4007 71.8836 27.766 71.8836 27.038C71.8836 26.3193 72.0469 25.6893 72.3736 25.148C72.7096 24.6067 73.1622 24.1867 73.7316 23.888C74.3102 23.5893 74.9542 23.44 75.6636 23.44C76.2982 23.44 76.8676 23.566 77.3716 23.818C77.8756 24.07 78.2769 24.462 78.5756 24.994C78.8836 25.526 79.0376 26.2073 79.0376 27.038C79.0376 27.8687 78.8836 28.5547 78.5756 29.096C78.2769 29.628 77.8756 30.0247 77.3716 30.286C76.8676 30.538 76.2982 30.664 75.6636 30.664ZM75.9296 29.18C76.3682 29.18 76.7602 29.0913 77.1056 28.914C77.4509 28.7273 77.7169 28.4753 77.9036 28.158C78.0996 27.8313 78.1976 27.458 78.1976 27.038C78.1976 26.618 78.0996 26.2493 77.9036 25.932C77.7169 25.6053 77.4509 25.358 77.1056 25.19C76.7602 25.0127 76.3682 24.924 75.9296 24.924C75.4909 24.924 75.0942 25.0127 74.7396 25.19C74.3942 25.358 74.1236 25.6053 73.9276 25.932C73.7409 26.2493 73.6476 26.618 73.6476 27.038C73.6476 27.458 73.7409 27.8313 73.9276 28.158C74.1236 28.4753 74.3942 28.7273 74.7396 28.914C75.0942 29.0913 75.4909 29.18 75.9296 29.18ZM86.4623 23.44C87.0596 23.44 87.5916 23.5567 88.0583 23.79C88.5343 24.0233 88.9076 24.3827 89.1783 24.868C89.4489 25.344 89.5843 25.96 89.5843 26.716V31H87.8343V26.94C87.8343 26.2773 87.6756 25.7827 87.3583 25.456C87.0503 25.1293 86.6163 24.966 86.0563 24.966C85.6456 24.966 85.2816 25.05 84.9643 25.218C84.6469 25.386 84.3996 25.638 84.2223 25.974C84.0543 26.3007 83.9703 26.716 83.9703 27.22V31H82.2203V23.524H83.8863V25.54L83.5923 24.924C83.8536 24.448 84.2316 24.084 84.7263 23.832C85.2303 23.5707 85.8089 23.44 86.4623 23.44ZM100.055 31.14C98.7114 31.14 97.6567 30.762 96.8914 30.006C96.1354 29.25 95.7574 28.158 95.7574 26.73V21.2H97.5774V26.66C97.5774 27.668 97.7921 28.4007 98.2214 28.858C98.6601 29.3153 99.2761 29.544 100.069 29.544C100.863 29.544 101.474 29.3153 101.903 28.858C102.333 28.4007 102.547 27.668 102.547 26.66V21.2H104.339V26.73C104.339 28.158 103.957 29.25 103.191 30.006C102.435 30.762 101.39 31.14 100.055 31.14ZM110.864 31.098C110.258 31.098 109.702 30.958 109.198 30.678C108.704 30.398 108.307 29.978 108.008 29.418C107.719 28.8487 107.574 28.13 107.574 27.262C107.574 26.3847 107.714 25.666 107.994 25.106C108.284 24.546 108.676 24.1307 109.17 23.86C109.665 23.58 110.23 23.44 110.864 23.44C111.602 23.44 112.25 23.5987 112.81 23.916C113.38 24.2333 113.828 24.6767 114.154 25.246C114.49 25.8153 114.658 26.4873 114.658 27.262C114.658 28.0367 114.49 28.7133 114.154 29.292C113.828 29.8613 113.38 30.3047 112.81 30.622C112.25 30.9393 111.602 31.098 110.864 31.098ZM106.72 33.716V23.524H108.386V25.288L108.33 27.276L108.47 29.264V33.716H106.72ZM110.668 29.6C111.088 29.6 111.462 29.5067 111.788 29.32C112.124 29.1333 112.39 28.8627 112.586 28.508C112.782 28.1533 112.88 27.738 112.88 27.262C112.88 26.7767 112.782 26.3613 112.586 26.016C112.39 25.6613 112.124 25.3907 111.788 25.204C111.462 25.0173 111.088 24.924 110.668 24.924C110.248 24.924 109.87 25.0173 109.534 25.204C109.198 25.3907 108.932 25.6613 108.736 26.016C108.54 26.3613 108.442 26.7767 108.442 27.262C108.442 27.738 108.54 28.1533 108.736 28.508C108.932 28.8627 109.198 29.1333 109.534 29.32C109.87 29.5067 110.248 29.6 110.668 29.6Z" fill="black"/>
</g>
<defs>
<filter id="filter0_d_2016_98" x="0" y="0" width="138" height="58" filterUnits="userSpaceOnUse" color-interpolation-filters="sRGB">
<feFlood flood-opacity="0" result="BackgroundImageFix"/>
<feColorMatrix in="SourceAlpha" type="matrix" values="0 0 0 0 0 0 0 0 0 0 0 0 0 0 0 0 0 0 127 0" result="hardAlpha"/>
<feOffset dx="-6" dy="6"/>
<feComposite in2="hardAlpha" operator="out"/>
<feColorMatrix type="matrix" values="0 0 0 0 0 0 0 0 0 0 0 0 0 0 0 0 0 0 1 0"/>
<feBlend mode="normal" in2="BackgroundImageFix" result="effect1_dropShadow_2016_98"/>
<feBlend mode="normal" in="SourceGraphic" in2="effect1_dropShadow_2016_98" result="shape"/>
</filter>
</defs>
</svg>
